# xmcd
#
# Track frame offsets: 
#        150
#        18018
#        35493
#        55025
#        73218
#        88838
#        110583
#        132540
#        144493
#        156765
#        174698
#        193770
#        207223
#        230758
#
# Disc length: 3187 seconds
#
# Revision: 4
# Processed by: cddbd v1.5.2PL0 Copyright (c) Steve Scherf et al.
# Submitted via: ExactAudioCopy v1.3
#
DISCID=cc0c710e
DTITLE=Lenny Kravitz - Mama said
DYEAR=1991
DGENRE=Blues
TTITLE0=Fields of joy
TTITLE1=Always on the run
TTITLE2=Stand by my woman
TTITLE3=It ain't over 'til it's over
TTITLE4=More than anything in this world
TTITLE5=What goes around comes around
TTITLE6=The difference is why
TTITLE7=Stop draggin' around
TTITLE8=Flowers for Zoé
TTITLE9=Fields of joy
TTITLE10=All I ever wanted
TTITLE11=When the morning turns to night
TTITLE12=What the ... are we saying
TTITLE13=Butterfly
EXTD=
EXTT0=
EXTT1=
EXTT2=
EXTT3=
EXTT4=
EXTT5=
EXTT6=
EXTT7=
EXTT8=
EXTT9=
EXTT10=
EXTT11=
EXTT12=
EXTT13=
PLAYORDER=
